<?xml version="1.0" encoding="UTF-8"?>
<svg width="675px" height="353px" viewBox="0 0 675 353" version="1.1" xmlns="http://www.w3.org/2000/svg" xmlns:xlink="http://www.w3.org/1999/xlink">
    <!-- Generator: Sketch 55.2 (78181) - https://sketchapp.com -->
    <title>ULPGC_HORIZ_01</title>
    <desc>Created with Sketch.</desc>
    <g id="horizontales" stroke="none" stroke-width="1" fill="none" fill-rule="evenodd">
        <g id="ULPGC_HORIZ_01">
            <rect id="_109988656" fill="#FFFFFF" x="0" y="0" width="674.701" height="352.758"></rect>
            <path d="M278.058,186.123 C273.60944,186.123 270.15781,184.99453 267.704,182.73669 C265.25022,180.47975 264.02378,177.06078 264.02378,172.48069 L264.02378,152.50839 C264.02378,152.14826 264.129914,151.85435 264.343089,151.624846 C264.555357,151.39625 264.84201,151.281951 265.201233,151.281951 L269.716013,151.281951 C270.076143,151.281951 270.370053,151.396249 270.599557,151.624846 C270.828153,151.85435 270.942452,152.148259 270.942452,152.50839 L270.942452,172.48069 C270.942452,175.0651 271.556578,177.0118 272.783012,178.32079 C274.009452,179.62887 275.752042,180.28382 278.008982,180.28382 C280.266822,180.28382 282.008512,179.628873 283.234952,178.32079 C284.462302,177.0118 285.075512,175.0651 285.075512,172.48069 L285.075512,152.50839 C285.075512,152.14826 285.18981,151.85435 285.419314,151.624846 C285.64791,151.39625 285.942727,151.281951 286.30195,151.281951 L290.81673,151.281951 C291.17686,151.281951 291.463513,151.396249 291.675781,151.624846 C291.888049,151.85435 291.99509,152.148259 291.99509,152.50839 L291.99509,172.48069 C291.99509,177.06078 290.77591,180.47975 288.33845,182.73669 C285.9019,184.99453 282.47477,186.123 278.05795,186.123 L278.058,186.123 Z M299.3864,185.632303 C299.058926,185.632303 298.780438,185.517945 298.551841,185.288441 C298.323245,185.059845 298.208039,184.781356 298.208039,184.45479 L298.208039,161.29219 C298.208039,160.932967 298.323244,160.646314 298.551841,160.434046 C298.780437,160.220871 299.058926,160.114737 299.3864,160.114737 L303.45941,160.114737 C303.818633,160.114737 304.105286,160.220871 304.317554,160.434046 C304.530729,160.646314 304.636863,160.932967 304.636863,161.29219 L304.636863,163.3042 C306.632543,160.85132 309.363913,159.62398 312.831863,159.62398 C315.841713,159.62398 318.230183,160.605493 319.996363,162.56852 C321.762543,164.53155 322.646083,167.23026 322.646083,170.66555 L322.646083,184.45485 C322.646083,184.781416 322.539949,185.059905 322.327681,185.288501 C322.114506,185.518005 321.82876,185.632303 321.46863,185.632303 L317.05182,185.632303 C316.725254,185.632303 316.446765,185.518005 316.218169,185.288501 C315.988665,185.059905 315.874367,184.781416 315.874367,184.45485 L315.874367,170.95945 C315.874367,169.06264 315.408103,167.58221 314.475577,166.51905 C313.543048,165.45589 312.210477,164.92341 310.476047,164.92341 C308.807837,164.92341 307.466197,165.464059 306.452027,166.54354 C305.437857,167.62302 304.930767,169.09529 304.930767,170.95944 L304.930767,184.45484 C304.930767,184.781406 304.824633,185.059895 304.612365,185.288491 C304.39919,185.517995 304.113444,185.632303 303.753314,185.632303 L299.386394,185.632303 L299.3864,185.632303 Z M329.3008,155.943743 C328.974234,155.943743 328.695745,155.829445 328.467149,155.599941 C328.237645,155.371345 328.123347,155.092856 328.123347,154.76629 L328.123347,151.18404 C328.123347,150.82391 328.237645,150.529093 328.467149,150.300496 C328.695745,150.070992 328.974234,149.956694 329.3008,149.956694 L333.81558,149.956694 C334.17571,149.956694 334.46962,150.070992 334.699124,150.300496 C334.92772,150.529092 335.042019,150.823909 335.042019,151.18404 L335.042019,154.76629 C335.042019,155.092856 334.919557,155.371345 334.674632,155.599941 C334.4288,155.829445 334.143054,155.943743 333.815581,155.943743 L329.300801,155.943743 L329.3008,155.943743 Z M329.497647,185.632243 C329.170173,185.632243 328.891685,185.517945 328.663088,185.288441 C328.434492,185.059845 328.319286,184.781356 328.319286,184.45479 L328.319286,161.29219 C328.319286,160.932967 328.434491,160.646314 328.663088,160.434046 C328.891684,160.220871 329.170173,160.114737 329.497647,160.114737 L333.668627,160.114737 C333.995193,160.114737 334.273682,160.229035 334.502278,160.458539 C334.731782,160.687135 334.84608,160.965624 334.84608,161.29219 L334.84608,184.45479 C334.84608,184.781356 334.731782,185.059845 334.502278,185.288441 C334.273682,185.517945 333.995193,185.632243 333.668627,185.632243 L329.497647,185.632243 Z M349.793747,185.632245 C349.30299,185.632245 348.926532,185.526109 348.665277,185.312934 C348.403117,185.100666 348.190849,184.797685 348.027565,184.405805 L338.801155,161.636005 C338.768498,161.538035 338.75217,161.39108 338.75217,161.194233 C338.75217,160.900323 338.859211,160.646327 339.071479,160.434059 C339.283747,160.220884 339.521415,160.11475 339.782668,160.11475 L343.855678,160.11475 C344.510625,160.11475 344.952398,160.425895 345.180998,161.047279 L351.658808,178.172979 L358.135708,161.047279 C358.201021,160.817775 358.340719,160.605507 358.552987,160.409567 C358.766162,160.21272 359.051908,160.11475 359.412038,160.11475 L363.485048,160.11475 C363.778958,160.11475 364.02479,160.220884 364.22073,160.434059 C364.417577,160.646327 364.515547,160.900323 364.515547,161.194233 C364.515547,161.39108 364.499219,161.538035 364.466562,161.636005 L355.290042,184.405805 C354.929912,185.223128 354.341185,185.632245 353.522952,185.632245 L349.793742,185.632245 L349.793747,185.632245 Z M379.463247,186.123004 C375.799357,186.123004 372.895637,185.07617 370.752997,182.98252 C368.610357,180.88887 367.472817,177.91167 367.342197,174.05093 L367.293212,172.82449 C367.293212,168.73515 368.364532,165.51303 370.507172,163.15722 C372.650722,160.80141 375.618842,159.62395 379.414272,159.62395 C383.306762,159.62395 386.308452,160.8014 388.418432,163.15722 C390.529322,165.51303 391.584312,168.65351 391.584312,172.57866 L391.584312,173.60916 C391.584312,173.936634 391.469107,174.215122 391.24051,174.443719 C391.011914,174.673223 390.717097,174.787521 390.356966,174.787521 L374.064966,174.787521 L374.064966,175.180308 C374.131186,177.011798 374.6292,178.524888 375.561726,179.718678 C376.494255,180.913368 377.778746,181.510258 379.414306,181.510258 C381.278456,181.510258 382.799716,180.757341 383.978076,179.253318 C384.271986,178.893188 384.501489,178.671848 384.664773,178.590207 C384.828056,178.508565 385.106545,178.467745 385.499332,178.467745 L389.817262,178.467745 C390.112079,178.467745 390.365168,178.549387 390.578343,178.71267 C390.790611,178.87686 390.896745,179.105457 390.896745,179.400274 C390.896745,180.18494 390.430481,181.109304 389.498855,182.172464 C388.566326,183.235624 387.232845,184.159984 385.499325,184.945554 C383.764895,185.73022 381.752885,186.123004 379.463285,186.123004 L379.463247,186.123004 Z M384.811717,170.6165 L384.811717,170.517623 C384.811717,168.588163 384.329084,167.042413 383.364807,165.880383 C382.399622,164.719263 381.082467,164.138693 379.414257,164.138693 C377.746047,164.138693 376.437057,164.719255 375.488207,165.880383 C374.53935,167.042413 374.064917,168.588163 374.064917,170.517623 L374.064917,170.6165 L384.811717,170.6165 L384.811717,170.6165 Z M397.404477,185.632274 C397.077003,185.632274 396.798515,185.517902 396.569918,185.288398 C396.341322,185.059802 396.226116,184.781313 396.226116,184.454747 L396.226116,161.341147 C396.226116,160.981924 396.341321,160.687107 396.569918,160.458511 C396.798514,160.229007 397.077003,160.114707 397.404477,160.114707 L401.428497,160.114707 C401.78772,160.114707 402.082537,160.229007 402.311133,160.458511 C402.540637,160.687107 402.654935,160.981924 402.654935,161.341147 L402.654935,163.353157 C404.290485,161.194187 406.646305,160.114707 409.721465,160.114707 L411.782465,160.114707 C412.141688,160.114707 412.428341,160.220841 412.640609,160.434016 C412.853784,160.646284 412.959918,160.932937 412.959918,161.29216 L412.959918,164.87441 C412.959918,165.201884 412.853784,165.480372 412.640609,165.708969 C412.428341,165.937565 412.141688,166.052771 411.782465,166.052771 L407.905395,166.052771 C406.367815,166.052771 405.157705,166.494543 404.274155,167.377181 C403.390611,168.260725 402.948835,169.470831 402.948835,171.008421 L402.948835,184.454821 C402.948835,184.781387 402.834537,185.059876 402.60594,185.288472 C402.376436,185.517976 402.098855,185.632274 401.771381,185.632274 L397.404461,185.632274 L397.404477,185.632274 Z M425.944577,186.122957 C423.458137,186.122957 421.380807,185.746499 419.712597,184.994487 C418.044387,184.24157 416.808877,183.367097 416.007887,182.369257 C415.205985,181.371415 414.805937,180.512367 414.805937,179.793007 C414.805937,179.465533 414.912071,179.203373 415.124339,179.007433 C415.337514,178.811493 415.590603,178.712616 415.88542,178.712616 L419.90944,178.712616 C420.170693,178.712616 420.39929,178.84415 420.596137,179.105403 C420.75942,179.23603 421.127715,179.547175 421.700117,180.037932 C422.272515,180.528689 422.926557,180.913311 423.663147,181.190892 C424.398829,181.469381 425.208897,181.608171 426.092437,181.608171 C427.400517,181.608171 428.463667,181.355082 429.281907,180.847997 C430.09923,180.340912 430.508347,179.612487 430.508347,178.663627 C430.508347,178.009587 430.320571,177.478007 429.944113,177.068897 C429.567655,176.659782 428.897283,176.284231 427.932103,175.940427 C426.966918,175.596625 425.520043,175.21291 423.589673,174.787467 C420.808413,174.19874 418.755583,173.298867 417.431173,172.088757 C416.105853,170.877737 415.443653,169.274847 415.443653,167.279157 C415.443653,165.971077 415.83644,164.735567 416.621103,163.574447 C417.406677,162.413327 418.575963,161.464467 420.129873,160.727877 C421.683783,159.992195 423.540673,159.623897 425.699643,159.623897 C427.923923,159.623897 429.837963,159.975863 431.440863,160.678887 C433.043763,161.382819 434.262943,162.224637 435.096593,163.206147 C435.931152,164.18766 436.348433,165.054877 436.348433,165.806887 C436.348433,166.101704 436.241392,166.354793 436.029124,166.567968 C435.816856,166.780236 435.56286,166.88637 435.26895,166.88637 L431.58782,166.88637 C431.228597,166.88637 430.950108,166.755743 430.754169,166.49449 C430.524665,166.3303 430.157278,166.028226 429.650189,165.586454 C429.143104,165.144682 428.577959,164.792716 427.956579,164.531464 C427.335196,164.269304 426.583189,164.138677 425.699639,164.138677 C424.488619,164.138677 423.556999,164.39993 422.902049,164.923343 C422.248009,165.447664 421.920536,166.134363 421.920536,166.985243 C421.920536,167.57397 422.076562,168.064723 422.3868,168.456603 C422.697945,168.84939 423.327493,169.217684 424.27635,169.561483 C425.225207,169.904378 426.64849,170.256344 428.5453,170.616473 C434.43438,171.761273 437.37892,174.329353 437.37892,178.320723 C437.37892,180.642973 436.37291,182.524363 434.3609,183.963973 C432.34889,185.403583 429.54314,186.122957 425.94456,186.122957 L425.944577,186.122957 Z M442.806277,155.943657 C442.479711,155.943657 442.201222,155.829359 441.972626,155.599855 C441.743122,155.371259 441.628824,155.09277 441.628824,154.766204 L441.628824,151.183954 C441.628824,150.823824 441.743122,150.529007 441.972626,150.30041 C442.201222,150.070906 442.479711,149.956608 442.806277,149.956608 L447.321057,149.956608 C447.681187,149.956608 447.975097,150.070906 448.204601,150.30041 C448.433197,150.529006 448.547496,150.823823 448.547496,151.183954 L448.547496,154.766204 C448.547496,155.09277 448.425034,155.371259 448.180109,155.599855 C447.934277,155.829359 447.648531,155.943657 447.321058,155.943657 L442.806278,155.943657 L442.806277,155.943657 Z M443.003124,185.632157 C442.67565,185.632157 442.397162,185.517859 442.168565,185.288355 C441.939969,185.059759 441.824763,184.78127 441.824763,184.454704 L441.824763,161.292104 C441.824763,160.932881 441.939968,160.646228 442.168565,160.43396 C442.397161,160.220785 442.67565,160.114651 443.003124,160.114651 L447.174104,160.114651 C447.50067,160.114651 447.779159,160.228949 448.007755,160.458453 C448.237259,160.687049 448.351557,160.965538 448.351557,161.292104 L448.351557,184.454704 C448.351557,184.78127 448.237259,185.059759 448.007755,185.288355 C447.779159,185.517859 447.50067,185.632157 447.174104,185.632157 L443.003124,185.632157 Z M463.741024,186.122914 C460.436354,186.122914 457.900924,185.067924 456.134744,182.957944 C454.368564,180.847964 453.403374,178.025884 453.239184,174.492614 L453.190199,172.873384 L453.239184,171.254154 C453.370718,167.786204 454.326834,164.981354 456.110244,162.837814 C457.892754,160.695174 460.436344,159.623854 463.741014,159.623854 C466.881494,159.623854 469.384264,160.703334 471.249324,162.862304 L471.249324,151.968604 C471.249324,151.608474 471.363622,151.322728 471.592219,151.109553 C471.821723,150.897285 472.099304,150.791151 472.426778,150.791151 L476.695728,150.791151 C477.055858,150.791151 477.341604,150.897285 477.554779,151.109553 C477.767047,151.322728 477.874088,151.608474 477.874088,151.968604 L477.874088,184.454704 C477.874088,184.78127 477.767047,185.059759 477.554779,185.288355 C477.341604,185.517859 477.055858,185.632157 476.695728,185.632157 L472.720688,185.632157 C472.394122,185.632157 472.115633,185.517859 471.887037,185.288355 C471.657533,185.059759 471.543235,184.78127 471.543235,184.454704 L471.543235,182.638634 C469.744395,184.961794 467.143655,186.122914 463.741015,186.122914 L463.741024,186.122914 Z M465.606084,180.823474 C467.470234,180.823474 468.852694,180.225666 469.752574,179.031884 C470.651539,177.838104 471.150464,176.357664 471.249334,174.590584 C471.281991,174.198704 471.298319,173.576414 471.298319,172.726434 C471.298319,171.84289 471.281991,171.205174 471.249334,170.812394 C471.183114,169.176844 470.676029,167.786214 469.728074,166.641414 C468.779217,165.496614 467.404914,164.923314 465.606084,164.923314 C462.105474,164.923314 460.240414,167.083184 460.011824,171.401124 L459.961932,172.873394 L460.011824,174.345664 C460.24042,178.663594 462.105474,180.823474 465.606084,180.823474 L465.606084,180.823474 Z M491.251484,186.122917 C489.583274,186.122917 488.053854,185.787276 486.663224,185.116904 C485.272594,184.446536 484.176784,183.538504 483.374884,182.393704 C482.573889,181.248004 482.172934,179.988904 482.172934,178.614604 C482.172934,176.390324 483.072806,174.590584 484.871644,173.217184 C486.671384,171.842884 489.141504,170.910354 492.281984,170.419594 L499.004714,169.438081 L499.004714,168.407581 C499.004714,167.001531 498.644584,165.937471 497.925234,165.218111 C497.204974,164.498758 496.060174,164.138631 494.489934,164.138631 C493.410454,164.138631 492.543234,164.334571 491.889194,164.727358 C491.235154,165.120145 490.703574,165.521096 490.294464,165.929308 C489.885349,166.338423 489.615932,166.608748 489.484398,166.739374 C489.353771,167.132161 489.108847,167.328101 488.748716,167.328101 L484.920636,167.328101 C484.626726,167.328101 484.37273,167.230131 484.160462,167.034191 C483.948194,166.837344 483.841153,166.576091 483.841153,166.248617 C483.87381,165.430387 484.274761,164.506927 485.044003,163.476427 C485.812341,162.445927 486.998863,161.546057 488.601763,160.776807 C490.204663,160.008469 492.184013,159.623847 494.538923,159.623847 C498.399663,159.623847 501.212673,160.491062 502.979753,162.224587 C504.745933,163.959017 505.629473,166.232287 505.629473,169.046197 L505.629473,184.454697 C505.629473,184.781263 505.523339,185.059752 505.310164,185.288348 C505.097896,185.517852 504.811243,185.63215 504.45202,185.63215 L500.37901,185.63215 C500.051536,185.63215 499.773955,185.517852 499.544451,185.288348 C499.315855,185.059752 499.200649,184.781263 499.200649,184.454697 L499.200649,182.540657 C498.481296,183.587487 497.467129,184.446537 496.158139,185.116907 C494.850059,185.787275 493.214509,186.122917 491.251479,186.122917 L491.251484,186.122917 Z M492.919694,181.412194 C494.719434,181.412194 496.190804,180.823467 497.336504,179.645104 C498.481304,178.467654 499.053704,176.766784 499.053704,174.541594 L499.053704,173.560081 L494.146134,174.345655 C490.384274,174.934382 488.502884,176.194385 488.502884,178.123845 C488.502884,179.170675 488.936492,179.980735 489.803704,180.553135 C490.670919,181.125533 491.709584,181.412194 492.919694,181.412194 L492.919694,181.412194 Z M520.822994,186.122914 C517.518324,186.122914 514.982894,185.067924 513.216714,182.957944 C511.450534,180.847964 510.485344,178.025884 510.321154,174.492614 L510.272169,172.873384 L510.321154,171.254154 C510.452688,167.786204 511.408804,164.981354 513.192214,162.837814 C514.974724,160.695174 517.518314,159.623854 520.822984,159.623854 C523.963464,159.623854 526.466234,160.703334 528.331294,162.862304 L528.331294,151.968604 C528.331294,151.608474 528.445592,151.322728 528.674189,151.109553 C528.903693,150.897285 529.181274,150.791151 529.508748,150.791151 L533.777698,150.791151 C534.137828,150.791151 534.423574,150.897285 534.636749,151.109553 C534.849017,151.322728 534.956058,151.608474 534.956058,151.968604 L534.956058,184.454704 C534.956058,184.78127 534.849017,185.059759 534.636749,185.288355 C534.423574,185.517859 534.137828,185.632157 533.777698,185.632157 L529.802658,185.632157 C529.476092,185.632157 529.197603,185.517859 528.969007,185.288355 C528.739503,185.059759 528.625205,184.78127 528.625205,184.454704 L528.625205,182.638634 C526.826365,184.961794 524.225625,186.122914 520.822985,186.122914 L520.822994,186.122914 Z M522.688054,180.823474 C524.552204,180.823474 525.934664,180.225666 526.834544,179.031884 C527.733509,177.838104 528.232434,176.357664 528.331304,174.590584 C528.363961,174.198704 528.380289,173.576414 528.380289,172.726434 C528.380289,171.84289 528.363961,171.205174 528.331304,170.812394 C528.265084,169.176844 527.757999,167.786214 526.810044,166.641414 C525.861187,165.496614 524.486884,164.923314 522.688054,164.923314 C519.187444,164.923314 517.322384,167.083184 517.093794,171.401124 L517.043902,172.873394 L517.093794,174.345664 C517.32239,178.663594 519.187444,180.823474 522.688054,180.823474 L522.688054,180.823474 Z M561.583054,186.122914 C558.278384,186.122914 555.742954,185.067924 553.976774,182.957944 C552.210594,180.847964 551.245404,178.025884 551.081214,174.492614 L551.032229,172.873384 L551.081214,171.254154 C551.212748,167.786204 552.168864,164.981354 553.952274,162.837814 C555.734784,160.695174 558.278374,159.623854 561.583044,159.623854 C564.723524,159.623854 567.226294,160.703334 569.091354,162.862304 L569.091354,151.968604 C569.091354,151.608474 569.205652,151.322728 569.434249,151.109553 C569.663753,150.897285 569.941334,150.791151 570.268808,150.791151 L574.537758,150.791151 C574.897888,150.791151 575.183634,150.897285 575.396809,151.109553 C575.609077,151.322728 575.716118,151.608474 575.716118,151.968604 L575.716118,184.454704 C575.716118,184.78127 575.609077,185.059759 575.396809,185.288355 C575.183634,185.517859 574.897888,185.632157 574.537758,185.632157 L570.562718,185.632157 C570.236152,185.632157 569.957663,185.517859 569.729067,185.288355 C569.499563,185.059759 569.385265,184.78127 569.385265,184.454704 L569.385265,182.638634 C567.586425,184.961794 564.985685,186.122914 561.583045,186.122914 L561.583054,186.122914 Z M563.448114,180.823474 C565.312264,180.823474 566.694724,180.225666 567.594604,179.031884 C568.493569,177.838104 568.992494,176.357664 569.091364,174.590584 C569.124021,174.198704 569.140349,173.576414 569.140349,172.726434 C569.140349,171.84289 569.124021,171.205174 569.091364,170.812394 C569.025144,169.176844 568.518059,167.786214 567.570104,166.641414 C566.621247,165.496614 565.246944,164.923314 563.448114,164.923314 C559.947504,164.923314 558.082444,167.083184 557.853854,171.401124 L557.803962,172.873394 L557.853854,174.345664 C558.08245,178.663594 559.947504,180.823474 563.448114,180.823474 L563.448114,180.823474 Z M592.724814,186.122918 C589.060924,186.122918 586.157204,185.076084 584.014564,182.982434 C581.871924,180.888784 580.734384,177.911584 580.603764,174.050844 L580.554779,172.824404 C580.554779,168.735064 581.626099,165.512944 583.768739,163.157134 C585.912289,160.801324 588.880409,159.623864 592.675839,159.623864 C596.568329,159.623864 599.570019,160.801314 601.679999,163.157134 C603.790889,165.512944 604.845879,168.653424 604.845879,172.578574 L604.845879,173.609074 C604.845879,173.936548 604.730674,174.215036 604.502077,174.443633 C604.273481,174.673137 603.978664,174.787435 603.618533,174.787435 L587.326533,174.787435 L587.326533,175.180222 C587.392753,177.011712 587.890767,178.524802 588.823293,179.718592 C589.755822,180.913282 591.040313,181.510172 592.675873,181.510172 C594.540023,181.510172 596.061283,180.757255 597.239643,179.253232 C597.533553,178.893102 597.763056,178.671762 597.92634,178.590121 C598.089623,178.508479 598.368112,178.467659 598.760899,178.467659 L603.078829,178.467659 C603.373646,178.467659 603.626735,178.549301 603.83991,178.712584 C604.052178,178.876774 604.158312,179.105371 604.158312,179.400188 C604.158312,180.184854 603.692048,181.109218 602.760422,182.172378 C601.827893,183.235538 600.494412,184.159898 598.760892,184.945468 C597.026462,185.730134 595.014452,186.122918 592.724852,186.122918 L592.724814,186.122918 Z M598.073284,170.616414 L598.073284,170.517537 C598.073284,168.588077 597.590651,167.042327 596.626374,165.880297 C595.661189,164.719177 594.344034,164.138607 592.675824,164.138607 C591.007614,164.138607 589.698624,164.719169 588.749774,165.880297 C587.800917,167.042327 587.326484,168.588077 587.326484,170.517537 L587.326484,170.616414 L598.073284,170.616414 L598.073284,170.616414 Z M265.054244,234.063717 C264.72677,234.063717 264.441025,233.941252 264.195193,233.69542 C263.950268,233.450495 263.827806,233.163842 263.827806,232.837276 L263.827806,200.939876 C263.827806,200.579746 263.950268,200.285836 264.195193,200.056332 C264.441025,199.827736 264.726771,199.713437 265.054244,199.713437 L271.923934,199.713437 C272.284064,199.713437 272.578881,199.827735 272.807478,200.056332 C273.036982,200.285836 273.15128,200.579745 273.15128,200.939876 L273.15128,226.359476 L287.87308,226.359476 C288.232303,226.359476 288.535284,226.481938 288.780209,226.72777 C289.026041,226.972695 289.148503,227.275676 289.148503,227.634899 L289.148503,232.837279 C289.148503,233.196502 289.026041,233.491319 288.780209,233.719915 C288.535284,233.949419 288.232303,234.063717 287.87308,234.063717 L265.05428,234.063717 L265.054244,234.063717 Z M299.920644,234.554471 C298.186214,234.554471 296.607814,234.218833 295.184524,233.548461 C293.761234,232.878093 292.649094,231.953731 291.848104,230.776271 C291.046202,229.597911 290.645254,228.306161 290.645254,226.899201 C290.645254,224.674921 291.569618,222.867011 293.418344,221.476381 C295.266164,220.086661 297.809754,219.129641 301.049114,218.606221 L307.134134,217.673692 L307.134134,217.084965 C307.134134,215.873945 306.888302,214.991315 306.397545,214.435245 C305.906788,213.879175 305.073135,213.600686 303.894775,213.600686 C303.240735,213.600686 302.692825,213.714984 302.251055,213.944488 C301.809283,214.173084 301.310362,214.516886 300.754295,214.974988 C300.328852,215.334211 299.9533,215.596371 299.625825,215.759654 C299.495198,215.989158 299.331008,216.103456 299.135068,216.103456 L293.442838,216.103456 C293.115364,216.103456 292.845947,215.997322 292.632772,215.784147 C292.420504,215.571879 292.330698,215.317883 292.363355,215.023973 C292.396012,214.140429 292.837783,213.150753 293.687765,212.054943 C294.538652,210.959133 295.831315,210.018443 297.564835,209.232863 C299.298355,208.448197 301.441905,208.055413 303.993655,208.055413 C308.049425,208.055413 311.059285,208.947121 313.022305,210.729633 C314.985335,212.513053 315.966845,214.926013 315.966845,217.968523 L315.966845,232.837223 C315.966845,233.163789 315.852547,233.450442 315.623043,233.695367 C315.394447,233.941199 315.09963,234.063661 314.740407,234.063661 L308.704367,234.063661 C308.376893,234.063661 308.091148,233.941199 307.845316,233.695367 C307.600391,233.450442 307.477022,233.163789 307.477022,232.837223 L307.477022,231.119123 C306.757669,232.133293 305.759822,232.959683 304.483492,233.597403 C303.208072,234.235115 301.686812,234.554471 299.920632,234.554471 L299.920644,234.554471 Z M302.373524,228.764271 C303.813134,228.764271 304.982424,228.289843 305.882294,227.340981 C306.782166,226.392124 307.232104,225.017821 307.232104,223.218991 L307.232104,222.630264 L303.159094,223.316961 C300.411404,223.840374 299.037104,224.821891 299.037104,226.261501 C299.037104,227.013511 299.355506,227.618561 299.994125,228.076661 C300.631837,228.534761 301.424665,228.764271 302.373525,228.764271 L302.373524,228.764271 Z M331.497824,234.554477 C328.815444,234.554477 326.574834,234.178013 324.775094,233.426001 C322.976254,232.673084 321.642774,231.774121 320.775564,230.726381 C319.909256,229.679551 319.475644,228.731601 319.475644,227.880721 C319.475644,227.553247 319.598106,227.28383 319.843938,227.070655 C320.088863,226.858387 320.359187,226.752253 320.653097,226.752253 L326.591167,226.752253 C326.787107,226.752253 326.951297,226.817566 327.081924,226.948193 C327.637994,227.308323 327.948232,227.520591 328.014453,227.585905 C328.635836,228.044005 329.216403,228.395971 329.756143,228.640895 C330.295885,228.886727 330.941763,229.009189 331.694673,229.009189 C332.578217,229.009189 333.305733,228.837742 333.878133,228.49394 C334.450531,228.150138 334.737184,227.667546 334.737184,227.04616 C334.737184,226.522747 334.581158,226.097303 334.27092,225.77074 C333.959775,225.443266 333.371048,225.124864 332.50383,224.813719 C331.637522,224.502574 330.32037,224.184172 328.55419,223.856698 C322.89461,222.711898 320.06437,220.094838 320.06437,216.005498 C320.06437,214.663858 320.497978,213.380268 321.36519,212.152918 C322.231498,210.926478 323.50783,209.936798 325.19237,209.183888 C326.87691,208.431878 328.89708,208.055418 331.2529,208.055418 C333.64137,208.055418 335.71053,208.423712 337.46038,209.159398 C339.21023,209.895987 340.54371,210.778628 341.45991,211.809118 C342.37611,212.839618 342.83421,213.780308 342.83421,214.631198 C342.83421,214.926015 342.727169,215.187268 342.514901,215.416772 C342.302633,215.645368 342.048637,215.759667 341.75382,215.759667 L336.3564,215.759667 C336.061583,215.759667 335.832987,215.694354 335.669703,215.563727 C335.276916,215.36688 334.884129,215.121955 334.491343,214.827138 C333.902616,214.435258 333.387363,214.132277 332.945593,213.920009 C332.503821,213.706834 331.939583,213.6007 331.252893,213.6007 C330.434663,213.6007 329.796953,213.780312 329.338853,214.140442 C328.880753,214.500572 328.652156,214.958672 328.652156,215.514742 C328.652156,216.005499 328.790947,216.405543 329.069435,216.716692 C329.347016,217.027837 329.919415,217.329911 330.786635,217.624728 C331.65385,217.918638 332.970095,218.229783 334.737185,218.557257 C337.942975,219.113327 340.274295,220.103007 341.729335,221.525387 C343.185275,222.948677 343.913705,224.609627 343.913705,226.506427 C343.913705,228.960207 342.826055,230.915077 340.649855,232.371017 C338.474555,233.826957 335.423885,234.554477 331.497835,234.554477 L331.497824,234.554477 Z M359.689624,234.063714 C359.36215,234.063714 359.076405,233.941252 358.830573,233.69542 C358.585648,233.450495 358.463186,233.163842 358.463186,232.837276 L358.463186,200.988876 C358.463186,200.629653 358.577484,200.326672 358.806081,200.081747 C359.035585,199.835915 359.329494,199.713453 359.689625,199.713453 L373.576825,199.713453 C377.829445,199.713453 381.166775,200.678638 383.587925,202.608103 C386.008145,204.538473 387.219165,207.368713 387.219165,211.097923 C387.219165,214.827133 386.008145,217.616553 383.587925,219.464373 C381.166795,221.313103 377.829475,222.237463 373.576825,222.237463 L367.982565,222.237463 L367.982565,232.837263 C367.982565,233.163829 367.868267,233.450482 367.638763,233.695407 C367.410167,233.941239 367.11535,234.063714 366.756127,234.063714 L359.689597,234.063714 L359.689624,234.063714 Z M373.331924,215.219914 C374.672664,215.219914 375.727654,214.867948 376.496894,214.164924 C377.265232,213.461899 377.649854,212.423234 377.649854,211.048934 C377.649854,209.772604 377.297888,208.742104 376.594864,207.957434 C375.891839,207.17186 374.803284,206.779984 373.331924,206.779984 L367.835634,206.779984 L367.835634,215.219914 L373.331924,215.219914 Z M398.432224,234.554414 C396.697794,234.554414 395.119394,234.218776 393.696104,233.548404 C392.272814,232.878036 391.160674,231.953674 390.359684,230.776214 C389.557782,229.597854 389.156834,228.306104 389.156834,226.899144 C389.156834,224.674864 390.081198,222.866954 391.929924,221.476324 C393.777744,220.086604 396.321334,219.129584 399.560694,218.606164 L405.645714,217.673635 L405.645714,217.084908 C405.645714,215.873888 405.399882,214.991258 404.909125,214.435188 C404.418368,213.879118 403.584715,213.600629 402.406355,213.600629 C401.752315,213.600629 401.204405,213.714927 400.762635,213.944431 C400.320863,214.173027 399.821942,214.516829 399.265875,214.974931 C398.840432,215.334154 398.46488,215.596314 398.137405,215.759597 C398.006778,215.989101 397.842588,216.103399 397.646648,216.103399 L391.954418,216.103399 C391.626944,216.103399 391.357527,215.997265 391.144352,215.78409 C390.932084,215.571822 390.842278,215.317826 390.874935,215.023916 C390.907592,214.140372 391.349363,213.150696 392.199345,212.054886 C393.050232,210.959076 394.342895,210.018386 396.076415,209.232806 C397.809935,208.44814 399.953485,208.055356 402.505235,208.055356 C406.561005,208.055356 409.570865,208.947064 411.533885,210.729576 C413.496915,212.512996 414.478425,214.925956 414.478425,217.968466 L414.478425,232.837166 C414.478425,233.163732 414.364127,233.450385 414.134623,233.69531 C413.906027,233.941142 413.61121,234.063604 413.251987,234.063604 L407.215947,234.063604 C406.888473,234.063604 406.602728,233.941142 406.356896,233.69531 C406.111971,233.450385 405.988602,233.163732 405.988602,232.837166 L405.988602,231.119066 C405.269249,232.133236 404.271402,232.959626 402.995072,233.597346 C401.719652,234.235058 400.198392,234.554414 398.432212,234.554414 L398.432224,234.554414 Z M400.885104,228.764214 C402.324714,228.764214 403.494004,228.289786 404.393874,227.340924 C405.293746,226.392067 405.743684,225.017764 405.743684,223.218934 L405.743684,222.630207 L401.670674,223.316904 C398.922984,223.840317 397.548684,224.821834 397.548684,226.261444 C397.548684,227.013454 397.867086,227.618504 398.505705,228.076604 C399.143417,228.534704 399.936245,228.764214 400.885105,228.764214 L400.885104,228.764214 Z M420.587904,234.063664 C420.227774,234.063664 419.9257,233.949366 419.679868,233.719862 C419.434943,233.491266 419.311574,233.196449 419.311574,232.837226 L419.311574,200.449126 C419.311574,200.089903 419.434944,199.795086 419.679868,199.56649 C419.9257,199.336986 420.227774,199.222688 420.587904,199.222688 L426.721914,199.222688 C427.082044,199.222688 427.375954,199.336986 427.605458,199.56649 C427.834054,199.795086 427.948353,200.089903 427.948353,200.449126 L427.948353,232.837226 C427.948353,233.163792 427.834055,233.450445 427.605458,233.69537 C427.375954,233.941202 427.082045,234.063664 426.721914,234.063664 L420.587904,234.063664 Z M434.254704,234.063664 C433.92723,234.063664 433.641485,233.941202 433.395653,233.69537 C433.150728,233.450445 433.027359,233.163792 433.027359,232.837226 L433.027359,209.772526 C433.027359,209.413303 433.150729,209.118486 433.395653,208.88989 C433.641485,208.660386 433.927231,208.546088 434.254704,208.546088 L439.946934,208.546088 C440.307064,208.546088 440.600974,208.660386 440.830478,208.88989 C441.059074,209.118486 441.173373,209.413303 441.173373,209.772526 L441.173373,211.441646 C441.958947,210.492789 442.973113,209.690886 444.215883,209.036846 C445.459553,208.382806 446.866513,208.055333 448.436753,208.055333 C452.035333,208.055333 454.504543,209.462293 455.846183,212.275293 C456.631757,211.032523 457.727573,210.018353 459.134523,209.232783 C460.540573,208.448117 462.045503,208.055333 463.648393,208.055333 C466.331683,208.055333 468.515143,208.963369 470.199673,210.778533 C471.884213,212.594603 472.726933,215.301473 472.726933,218.900063 L472.726933,232.837163 C472.726933,233.163729 472.612635,233.450382 472.383131,233.695307 C472.154535,233.941139 471.859718,234.063664 471.500495,234.063664 L465.464455,234.063664 C465.104325,234.063664 464.802251,233.949303 464.556419,233.719799 C464.311494,233.491203 464.188125,233.196386 464.188125,232.837163 L464.188125,219.243863 C464.188125,217.738933 463.869723,216.634963 463.232011,215.931933 C462.593392,215.228001 461.735251,214.876033 460.655761,214.876033 C459.641591,214.876033 458.815201,215.227999 458.177481,215.931933 C457.538862,216.634958 457.22046,217.738933 457.22046,219.243863 L457.22046,232.837163 C457.22046,233.163729 457.106162,233.450382 456.876658,233.695307 C456.648062,233.941139 456.353245,234.063664 455.993114,234.063664 L449.957984,234.063664 C449.597854,234.063664 449.294873,233.949303 449.049948,233.719799 C448.804116,233.491203 448.681654,233.196386 448.681654,232.837163 L448.681654,219.243863 C448.681654,217.738933 448.35418,216.634963 447.700141,215.931933 C447.046101,215.228001 446.195211,214.876033 445.148391,214.876033 C444.134221,214.876033 443.300571,215.227999 442.645621,215.931933 C441.991581,216.634958 441.664108,217.722603 441.664108,219.194873 L441.664108,232.837173 C441.664108,233.163739 441.54981,233.450392 441.321213,233.695317 C441.091709,233.941149 440.7978,234.063664 440.437669,234.063664 L434.254679,234.063664 L434.254704,234.063664 Z M485.265304,234.554421 C483.530874,234.554421 481.952474,234.218783 480.529184,233.548411 C479.105894,232.878043 477.993754,231.953681 477.192764,230.776221 C476.390862,229.597861 475.989914,228.306111 475.989914,226.899151 C475.989914,224.674871 476.914278,222.866961 478.763004,221.476331 C480.610824,220.086611 483.154414,219.129591 486.393774,218.606171 L492.478794,217.673642 L492.478794,217.084915 C492.478794,215.873895 492.232962,214.991265 491.742205,214.435195 C491.251448,213.879125 490.417795,213.600636 489.239435,213.600636 C488.585395,213.600636 488.037485,213.714934 487.595715,213.944438 C487.153943,214.173034 486.655022,214.516836 486.098955,214.974938 C485.673512,215.334161 485.29796,215.596321 484.970485,215.759604 C484.839858,215.989108 484.675668,216.103406 484.479728,216.103406 L478.787498,216.103406 C478.460024,216.103406 478.190607,215.997272 477.977432,215.784097 C477.765164,215.571829 477.675358,215.317833 477.708015,215.023923 C477.740672,214.140379 478.182443,213.150703 479.032425,212.054893 C479.883312,210.959083 481.175975,210.018393 482.909495,209.232813 C484.643015,208.448147 486.786565,208.055363 489.338315,208.055363 C493.394085,208.055363 496.403945,208.947071 498.366965,210.729583 C500.329995,212.513003 501.311505,214.925963 501.311505,217.968473 L501.311505,232.837173 C501.311505,233.163739 501.197207,233.450392 500.967703,233.695317 C500.739107,233.941149 500.44429,234.063611 500.085067,234.063611 L494.049027,234.063611 C493.721553,234.063611 493.435808,233.941149 493.189976,233.695317 C492.945051,233.450392 492.821682,233.163739 492.821682,232.837173 L492.821682,231.119073 C492.102329,232.133243 491.104482,232.959633 489.828152,233.597353 C488.552732,234.235065 487.031472,234.554421 485.265292,234.554421 L485.265304,234.554421 Z M487.718184,228.764221 C489.157794,228.764221 490.327084,228.289793 491.226954,227.340931 C492.126826,226.392074 492.576764,225.017771 492.576764,223.218941 L492.576764,222.630214 L488.503754,223.316911 C485.756064,223.840324 484.381764,224.821841 484.381764,226.261451 C484.381764,227.013461 484.700166,227.618511 485.338785,228.076611 C485.976497,228.534711 486.769325,228.764221 487.718185,228.764221 L487.718184,228.764221 Z M516.842484,234.554427 C514.160104,234.554427 511.919494,234.177963 510.119754,233.425951 C508.320914,232.673034 506.987434,231.774071 506.120224,230.726331 C505.253916,229.679501 504.820304,228.731551 504.820304,227.880671 C504.820304,227.553197 504.942766,227.28378 505.188598,227.070605 C505.433523,226.858337 505.703847,226.752203 505.997757,226.752203 L511.935827,226.752203 C512.131767,226.752203 512.295957,226.817516 512.426584,226.948143 C512.982654,227.308273 513.292892,227.520541 513.359113,227.585855 C513.980496,228.043955 514.561063,228.395921 515.100803,228.640845 C515.640545,228.886677 516.286423,229.009139 517.039333,229.009139 C517.922877,229.009139 518.650393,228.837692 519.222793,228.49389 C519.795191,228.150088 520.081844,227.667496 520.081844,227.04611 C520.081844,226.522697 519.925818,226.097253 519.61558,225.77069 C519.304435,225.443216 518.715708,225.124814 517.84849,224.813669 C516.982182,224.502524 515.66503,224.184122 513.89885,223.856648 C508.23927,222.711848 505.40903,220.094788 505.40903,216.005448 C505.40903,214.663808 505.842638,213.380218 506.70985,212.152868 C507.576158,210.926428 508.85249,209.936748 510.53703,209.183838 C512.22157,208.431828 514.24174,208.055368 516.59756,208.055368 C518.98603,208.055368 521.05519,208.423662 522.80504,209.159348 C524.55489,209.895937 525.88837,210.778578 526.80457,211.809068 C527.72077,212.839568 528.17887,213.780258 528.17887,214.631148 C528.17887,214.925965 528.071829,215.187218 527.859561,215.416722 C527.647293,215.645318 527.393297,215.759617 527.09848,215.759617 L521.70106,215.759617 C521.406243,215.759617 521.177647,215.694304 521.014363,215.563677 C520.621576,215.36683 520.228789,215.121905 519.836003,214.827088 C519.247276,214.435208 518.732023,214.132227 518.290253,213.919959 C517.848481,213.706784 517.284243,213.60065 516.597553,213.60065 C515.779323,213.60065 515.141613,213.780262 514.683513,214.140392 C514.225413,214.500522 513.996816,214.958622 513.996816,215.514692 C513.996816,216.005449 514.135607,216.405493 514.414095,216.716642 C514.691676,217.027787 515.264075,217.329861 516.131295,217.624678 C516.99851,217.918588 518.314755,218.229733 520.081845,218.557207 C523.287635,219.113277 525.618955,220.102957 527.073995,221.525337 C528.529935,222.948627 529.258365,224.609577 529.258365,226.506377 C529.258365,228.960157 528.170715,230.915027 525.994515,232.370967 C523.819215,233.826907 520.768545,234.554427 516.842495,234.554427 L516.842484,234.554427 Z M553.916884,234.554431 C550.743744,234.554431 548.249144,233.556579 546.433974,231.560891 C544.617904,229.565211 543.644554,226.719541 543.513924,223.022091 L543.464939,221.304891 L543.513924,219.538711 C543.644551,215.972791 544.626064,213.167041 546.458464,211.122371 C548.289954,209.077701 550.776394,208.055371 553.916874,208.055371 C556.861414,208.055371 559.233554,209.004228 561.032394,210.901941 L561.032394,200.449141 C561.032394,200.089918 561.154856,199.795101 561.400688,199.566505 C561.645613,199.337001 561.932266,199.222703 562.259739,199.222703 L568.589689,199.222703 C568.949819,199.222703 569.251893,199.337001 569.497725,199.566505 C569.74265,199.795101 569.865112,200.089918 569.865112,200.449141 L569.865112,232.837241 C569.865112,233.196464 569.74265,233.491281 569.497725,233.719877 C569.251893,233.949381 568.949819,234.063679 568.589689,234.063679 L562.749589,234.063679 C562.423023,234.063679 562.13637,233.941217 561.891445,233.695385 C561.645613,233.45046 561.523151,233.163807 561.523151,232.837241 L561.523151,231.315981 C559.756971,233.474951 557.221541,234.554431 553.916871,234.554431 L553.916884,234.554431 Z M556.763454,227.733721 C558.170414,227.733721 559.217234,227.283785 559.903934,226.383911 C560.590631,225.484039 560.967094,224.347411 561.032404,222.973111 C561.097717,222.057818 561.130374,221.435531 561.130374,221.108961 C561.130374,220.748831 561.097717,220.143776 561.032404,219.292891 C560.967091,218.017471 560.582468,216.962481 559.879444,216.127921 C559.175512,215.293362 558.136854,214.876081 556.763454,214.876081 C555.291184,214.876081 554.236194,215.309689 553.598484,216.176901 C552.959865,217.044116 552.592474,218.246061 552.493604,219.783641 L552.444619,221.304901 L552.493604,222.826161 C552.592481,224.363741 552.959868,225.565691 553.598484,226.432901 C554.236196,227.300116 555.291184,227.733721 556.763454,227.733721 L556.763454,227.733721 Z M586.918254,234.554421 C582.926884,234.554421 579.786404,233.483101 577.495904,231.340461 C575.206314,229.196911 574.028854,226.080931 573.963544,221.991591 L573.963544,220.470331 C574.094171,216.577841 575.304284,213.535331 577.594784,211.343711 C579.884374,209.151181 582.975874,208.055371 586.869274,208.055371 C589.682284,208.055371 592.062584,208.619605 594.009284,209.748071 C595.955984,210.877451 597.411014,212.431361 598.376204,214.410711 C599.341389,216.389161 599.823984,218.638841 599.823984,221.157931 L599.823984,222.384371 C599.823984,222.744501 599.701522,223.046575 599.45569,223.292407 C599.210765,223.537332 598.907784,223.660701 598.548561,223.660701 L582.992161,223.660701 L582.992161,223.954611 C583.024818,225.426881 583.368619,226.612501 584.022661,227.512371 C584.677608,228.412243 585.609231,228.862181 586.820251,228.862181 C587.604917,228.862181 588.234461,228.707062 588.708891,228.395917 C589.183319,228.084772 589.633255,227.684728 590.058701,227.193967 C590.353518,226.866493 590.590279,226.662389 590.76989,226.579841 C590.950409,226.498199 591.236154,226.457379 591.628941,226.457379 L598.057761,226.457379 C598.351671,226.457379 598.605667,226.547185 598.817935,226.727703 C599.03111,226.907315 599.137244,227.127747 599.137244,227.389907 C599.137244,228.240794 598.654651,229.238637 597.689464,230.383437 C596.724279,231.528237 595.317324,232.509747 593.469504,233.327977 C591.620774,234.1453 589.437314,234.554421 586.918224,234.554421 L586.918254,234.554421 Z M590.794414,218.655221 L590.794414,218.557251 C590.794414,216.987011 590.451519,215.767831 589.763914,214.901521 C589.077217,214.034306 588.112034,213.600701 586.869264,213.600701 C585.625594,213.600701 584.668574,214.034309 583.998204,214.901521 C583.327836,215.767829 582.992194,216.987011 582.992194,218.557251 L582.992194,218.655221 L590.794414,218.655221 L590.794414,218.655221 Z M279.286414,282.986121 C274.542134,282.986121 270.829254,281.833161 268.146914,279.526331 C265.464534,277.220411 264.041244,273.923901 263.877964,269.638621 C263.8444,268.722421 263.828072,267.233821 263.828072,265.172821 C263.828072,263.111821 263.8444,261.606901 263.877964,260.658041 C264.008591,256.536051 265.440044,253.338421 268.171404,251.065151 C270.902774,248.790981 274.608394,247.654351 279.286504,247.654351 C282.426984,247.654351 285.166514,248.161436 287.505994,249.175611 C289.844574,250.189781 291.627984,251.489701 292.854424,253.076261 C294.081774,254.663741 294.727644,256.291121 294.792954,257.959331 C294.792954,258.254148 294.68682,258.507237 294.473645,258.719505 C294.261377,258.93268 294.007381,259.038814 293.713471,259.038814 L286.107191,259.038814 C285.779717,259.038814 285.526629,258.981665 285.347017,258.867367 C285.166498,258.753069 284.995051,258.580714 284.831768,258.352118 C284.438981,257.435918 283.809438,256.650348 282.942218,255.996308 C282.075003,255.342268 280.856728,255.014795 279.286488,255.014795 C275.491058,255.014795 273.528038,256.977825 273.397408,260.903875 C273.364751,261.820075 273.348423,263.226125 273.348423,265.123835 C273.348423,267.021545 273.364751,268.444835 273.397408,269.392785 C273.528035,273.547435 275.523718,275.625665 279.384458,275.625665 C281.282168,275.625665 282.787098,275.151237 283.899238,274.202375 C285.011378,273.253518 285.567448,271.813905 285.567448,269.883535 L285.567448,269.000899 L281.199618,269.000899 C280.840395,269.000899 280.537414,268.877529 280.292489,268.632605 C280.046657,268.386773 279.924195,268.084699 279.924195,267.724569 L279.924195,263.897389 C279.924195,263.537259 280.046657,263.234278 280.292489,262.989353 C280.537414,262.743521 280.840395,262.621059 281.199618,262.621059 L293.664518,262.621059 C294.023741,262.621059 294.326722,262.743521 294.572554,262.989353 C294.817479,263.234278 294.939941,263.537259 294.939941,263.897389 L294.939941,269.589619 C294.939941,272.369969 294.294065,274.766599 293.001411,276.778619 C291.709661,278.790629 289.885421,280.328219 287.530521,281.391369 C285.174711,282.454529 282.427011,282.986121 279.286531,282.986121 L279.286414,282.986121 Z M300.558614,282.495364 C300.23114,282.495364 299.945395,282.372902 299.699563,282.12707 C299.454638,281.882145 299.331269,281.595492 299.331269,281.268926 L299.331269,258.254126 C299.331269,257.893996 299.446474,257.591015 299.675071,257.34609 C299.904575,257.100258 300.198484,256.977796 300.558615,256.977796 L306.545665,256.977796 C306.904888,256.977796 307.207869,257.100258 307.452794,257.34609 C307.698626,257.591015 307.821088,257.893996 307.821088,258.254126 L307.821088,260.118276 C308.737288,259.104106 309.808608,258.327606 311.035048,257.787866 C312.262398,257.248124 313.627618,256.977796 315.132548,256.977796 L317.341408,256.977796 C317.700631,256.977796 317.995448,257.092098 318.224044,257.321602 C318.453548,257.550198 318.567846,257.845015 318.567846,258.204238 L318.567846,263.553578 C318.567846,263.881052 318.453548,264.166797 318.224044,264.412629 C317.995448,264.657554 317.700631,264.780016 317.341408,264.780016 L312.384858,264.780016 C311.075868,264.780016 310.069868,265.140146 309.366838,265.859496 C308.663813,266.579756 308.311848,267.593926 308.311848,268.902006 L308.311848,281.268906 C308.311848,281.628129 308.189386,281.922946 307.943554,282.151542 C307.698629,282.381046 307.395648,282.495364 307.036425,282.495364 L300.558615,282.495364 L300.558614,282.495364 Z M329.143114,282.986121 C327.408684,282.986121 325.830284,282.650483 324.406994,281.980111 C322.983704,281.309743 321.871564,280.385381 321.070574,279.207921 C320.268672,278.029561 319.867724,276.737811 319.867724,275.330851 C319.867724,273.106571 320.792088,271.298661 322.640814,269.908031 C324.488634,268.518311 327.032224,267.561291 330.271584,267.037871 L336.356604,266.105342 L336.356604,265.516615 C336.356604,264.305595 336.110772,263.422965 335.620015,262.866895 C335.129258,262.310825 334.295605,262.032336 333.117245,262.032336 C332.463205,262.032336 331.915295,262.146634 331.473525,262.376138 C331.031753,262.604734 330.532832,262.948536 329.976765,263.406638 C329.551322,263.765861 329.17577,264.028021 328.848295,264.191304 C328.717668,264.420808 328.553478,264.535106 328.357538,264.535106 L322.665308,264.535106 C322.337834,264.535106 322.068417,264.428972 321.855242,264.215797 C321.642974,264.003529 321.553168,263.749533 321.585825,263.455623 C321.618482,262.572079 322.060253,261.582403 322.910235,260.486593 C323.761122,259.390783 325.053785,258.450093 326.787305,257.664513 C328.520825,256.879847 330.664375,256.487063 333.216125,256.487063 C337.271895,256.487063 340.281755,257.378771 342.244775,259.161283 C344.207805,260.944703 345.189315,263.357663 345.189315,266.400173 L345.189315,281.268873 C345.189315,281.595439 345.075017,281.882092 344.845513,282.127017 C344.616917,282.372849 344.3221,282.495311 343.962877,282.495311 L337.926837,282.495311 C337.599363,282.495311 337.313618,282.372849 337.067786,282.127017 C336.822861,281.882092 336.699492,281.595439 336.699492,281.268873 L336.699492,279.550773 C335.980139,280.564943 334.982292,281.391333 333.705962,282.029053 C332.430542,282.666765 330.909282,282.986121 329.143102,282.986121 L329.143114,282.986121 Z M331.595994,277.195921 C333.035604,277.195921 334.204894,276.721493 335.104764,275.772631 C336.004636,274.823774 336.454574,273.449471 336.454574,271.650641 L336.454574,271.061914 L332.381564,271.748611 C329.633874,272.272024 328.259574,273.253541 328.259574,274.693151 C328.259574,275.445161 328.577976,276.050211 329.216595,276.508311 C329.854307,276.966411 330.647135,277.195921 331.595995,277.195921 L331.595994,277.195921 Z M351.249894,282.495371 C350.92242,282.495371 350.636675,282.372909 350.390843,282.127077 C350.145918,281.882152 350.022549,281.595499 350.022549,281.268933 L350.022549,258.204233 C350.022549,257.84501 350.145919,257.550193 350.390843,257.321597 C350.636675,257.092093 350.922421,256.977795 351.249894,256.977795 L357.285934,256.977795 C357.645157,256.977795 357.939974,257.092093 358.16857,257.321597 C358.398074,257.550193 358.512372,257.84501 358.512372,258.204233 L358.512372,260.069293 C359.395916,258.989813 360.532552,258.122593 361.923172,257.468553 C363.312892,256.814513 364.908532,256.48704 366.707372,256.48704 C368.572432,256.48704 370.232472,256.912483 371.688412,257.76337 C373.144352,258.61335 374.289152,259.87335 375.123712,261.54156 C375.957363,263.20977 376.374642,265.22178 376.374642,267.5776 L376.374642,281.2689 C376.374642,281.595466 376.260344,281.882119 376.03084,282.127044 C375.802244,282.372876 375.507427,282.495371 375.148204,282.495371 L368.621414,282.495371 C368.261284,282.495371 367.95921,282.38104 367.713378,282.151536 C367.468453,281.92294 367.345084,281.628123 367.345084,281.2689 L367.345084,267.8715 C367.345084,266.40014 366.994025,265.27076 366.290094,264.48609 C365.587069,263.700516 364.564734,263.30773 363.223094,263.30773 C361.915014,263.30773 360.884514,263.708681 360.131594,264.51058 C359.379584,265.311575 359.003124,266.43279 359.003124,267.87149 L359.003124,281.26889 C359.003124,281.595456 358.888826,281.882109 358.659322,282.127034 C358.430726,282.372866 358.135909,282.495371 357.776686,282.495371 L351.249896,282.495371 L351.249894,282.495371 Z M406.283594,282.986128 C401.605534,282.986128 397.933474,281.857658 395.267394,279.599818 C392.601344,277.342878 391.186224,274.038208 391.022934,269.687618 C390.98937,268.804074 390.973042,267.364458 390.973042,265.368778 C390.973042,263.341348 390.98937,261.869078 391.022934,260.952878 C391.186217,256.700258 392.617664,253.420078 395.316374,251.114158 C398.015084,248.807328 401.670814,247.654368 406.283574,247.654368 C409.195454,247.654368 411.804364,248.128796 414.111194,249.077658 C416.417114,250.025608 418.241354,251.399908 419.582084,253.199648 C420.923724,254.998488 421.626754,257.124798 421.692974,259.578578 C421.692974,259.873395 421.585933,260.11832 421.373665,260.315167 C421.16049,260.511107 420.907401,260.609077 420.612584,260.609077 L413.644924,260.609077 C413.186824,260.609077 412.851186,260.519271 412.638914,260.33966 C412.425739,260.159141 412.237963,259.824411 412.07468,259.33365 C411.61658,257.73075 410.92081,256.60954 409.98919,255.97183 C409.056661,255.334118 407.82115,255.014809 406.28357,255.014809 C402.58702,255.014809 400.67298,257.075809 400.54235,261.197799 C400.509693,262.081343 400.493365,263.439319 400.493365,265.270809 C400.493365,267.103209 400.509693,268.493839 400.54235,269.441789 C400.672977,273.564689 402.58702,275.625689 406.28357,275.625689 C407.7885,275.625689 409.02401,275.298215 409.98919,274.644176 C410.954375,273.989229 411.64924,272.877086 412.07468,271.306846 C412.205307,270.816089 412.384918,270.480452 412.614422,270.300836 C412.843018,270.121224 413.18682,270.031419 413.644922,270.031419 L420.612582,270.031419 C420.907399,270.031419 421.160488,270.129389 421.373663,270.325329 C421.585931,270.522176 421.692974,270.767101 421.692974,271.061918 C421.626752,273.514798 420.923727,275.642008 419.582082,277.440848 C418.241342,279.240588 416.417112,280.613988 414.111192,281.562838 C411.804362,282.511695 409.195462,282.986128 406.283572,282.986128 L406.283594,282.986128 Z M433.347794,282.986128 C431.613364,282.986128 430.034964,282.65049 428.611674,281.980118 C427.188384,281.30975 426.076244,280.385388 425.275254,279.207928 C424.473352,278.029568 424.072404,276.737818 424.072404,275.330858 C424.072404,273.106578 424.996768,271.298668 426.845494,269.908038 C428.693314,268.518318 431.236904,267.561298 434.476264,267.037878 L440.561284,266.105349 L440.561284,265.516622 C440.561284,264.305602 440.315452,263.422972 439.824695,262.866902 C439.333938,262.310832 438.500285,262.032343 437.321925,262.032343 C436.667885,262.032343 436.119975,262.146641 435.678205,262.376145 C435.236433,262.604741 434.737512,262.948543 434.181445,263.406645 C433.756002,263.765868 433.38045,264.028028 433.052975,264.191311 C432.922348,264.420815 432.758158,264.535113 432.562218,264.535113 L426.869988,264.535113 C426.542514,264.535113 426.273097,264.428979 426.059922,264.215804 C425.847654,264.003536 425.757848,263.74954 425.790505,263.45563 C425.823162,262.572086 426.264933,261.58241 427.114915,260.4866 C427.965802,259.39079 429.258465,258.4501 430.991985,257.66452 C432.725505,256.879854 434.869055,256.48707 437.420805,256.48707 C441.476575,256.48707 444.486435,257.378778 446.449455,259.16129 C448.412485,260.94471 449.393995,263.35767 449.393995,266.40018 L449.393995,281.26888 C449.393995,281.595446 449.279697,281.882099 449.050193,282.127024 C448.821597,282.372856 448.52678,282.495318 448.167557,282.495318 L442.131517,282.495318 C441.804043,282.495318 441.518298,282.372856 441.272466,282.127024 C441.027541,281.882099 440.904172,281.595446 440.904172,281.26888 L440.904172,279.55078 C440.184819,280.56495 439.186972,281.39134 437.910642,282.02906 C436.635222,282.666772 435.113962,282.986128 433.347782,282.986128 L433.347794,282.986128 Z M435.800674,277.195928 C437.240284,277.195928 438.409574,276.7215 439.309444,275.772638 C440.209316,274.823781 440.659254,273.449478 440.659254,271.650648 L440.659254,271.061921 L436.586244,271.748618 C433.838554,272.272031 432.464254,273.253548 432.464254,274.693158 C432.464254,275.445168 432.782656,276.050218 433.421275,276.508318 C434.058987,276.966418 434.851815,277.195928 435.800675,277.195928 L435.800674,277.195928 Z M455.454574,282.495378 C455.1271,282.495378 454.841355,282.372916 454.595523,282.127084 C454.350598,281.882159 454.227229,281.595506 454.227229,281.26894 L454.227229,258.20424 C454.227229,257.845017 454.350599,257.5502 454.595523,257.321604 C454.841355,257.0921 455.127101,256.977802 455.454574,256.977802 L461.490614,256.977802 C461.849837,256.977802 462.144654,257.0921 462.37325,257.321604 C462.602754,257.5502 462.717052,257.845017 462.717052,258.20424 L462.717052,260.0693 C463.600596,258.98982 464.737232,258.1226 466.127852,257.46856 C467.517572,256.81452 469.113212,256.487047 470.912052,256.487047 C472.777112,256.487047 474.437152,256.91249 475.893092,257.763377 C477.349032,258.613357 478.493832,259.873357 479.328392,261.541567 C480.162043,263.209777 480.579322,265.221787 480.579322,267.577607 L480.579322,281.268907 C480.579322,281.595473 480.465024,281.882126 480.23552,282.127051 C480.006924,282.372883 479.712107,282.495378 479.352884,282.495378 L472.826094,282.495378 C472.465964,282.495378 472.16389,282.381047 471.918058,282.151543 C471.673133,281.922947 471.549764,281.62813 471.549764,281.268907 L471.549764,267.871507 C471.549764,266.400147 471.198705,265.270767 470.494774,264.486097 C469.791749,263.700523 468.769414,263.307737 467.427774,263.307737 C466.119694,263.307737 465.089194,263.708688 464.336274,264.510587 C463.584264,265.311582 463.207804,266.432797 463.207804,267.871497 L463.207804,281.268897 C463.207804,281.595463 463.093506,281.882116 462.864002,282.127041 C462.635406,282.372873 462.340589,282.495378 461.981366,282.495378 L455.454576,282.495378 L455.454574,282.495378 Z M493.117674,282.986135 C491.383244,282.986135 489.804844,282.650497 488.381554,281.980125 C486.958264,281.309757 485.846124,280.385395 485.045134,279.207935 C484.243232,278.029575 483.842284,276.737825 483.842284,275.330865 C483.842284,273.106585 484.766648,271.298675 486.615374,269.908045 C488.463194,268.518325 491.006784,267.561305 494.246144,267.037885 L500.331164,266.105356 L500.331164,265.516629 C500.331164,264.305609 500.085332,263.422979 499.594575,262.866909 C499.103818,262.310839 498.270165,262.03235 497.091805,262.03235 C496.437765,262.03235 495.889855,262.146648 495.448085,262.376152 C495.006313,262.604748 494.507392,262.94855 493.951325,263.406652 C493.525882,263.765875 493.15033,264.028035 492.822855,264.191318 C492.692228,264.420822 492.528038,264.53512 492.332098,264.53512 L486.639868,264.53512 C486.312394,264.53512 486.042977,264.428986 485.829802,264.215811 C485.617534,264.003543 485.527728,263.749547 485.560385,263.455637 C485.593042,262.572093 486.034813,261.582417 486.884795,260.486607 C487.735682,259.390797 489.028345,258.450107 490.761865,257.664527 C492.495385,256.879861 494.638935,256.487077 497.190685,256.487077 C501.246455,256.487077 504.256315,257.378785 506.219335,259.161297 C508.182365,260.944717 509.163875,263.357677 509.163875,266.400187 L509.163875,281.268887 C509.163875,281.595453 509.049577,281.882106 508.820073,282.127031 C508.591477,282.372863 508.29666,282.495325 507.937437,282.495325 L501.901397,282.495325 C501.573923,282.495325 501.288178,282.372863 501.042346,282.127031 C500.797421,281.882106 500.674052,281.595453 500.674052,281.268887 L500.674052,279.550787 C499.954699,280.564957 498.956852,281.391347 497.680522,282.029067 C496.405102,282.666779 494.883842,282.986135 493.117662,282.986135 L493.117674,282.986135 Z M495.570554,277.195935 C497.010164,277.195935 498.179454,276.721507 499.079324,275.772645 C499.979196,274.823788 500.429134,273.449485 500.429134,271.650655 L500.429134,271.061928 L496.356124,271.748625 C493.608434,272.272038 492.234134,273.253555 492.234134,274.693165 C492.234134,275.445175 492.552536,276.050225 493.191155,276.508325 C493.828867,276.966425 494.621695,277.195935 495.570555,277.195935 L495.570554,277.195935 Z M515.224454,282.495385 C514.89698,282.495385 514.611235,282.372923 514.365403,282.127091 C514.120478,281.882166 513.997109,281.595513 513.997109,281.268947 L513.997109,258.254147 C513.997109,257.894017 514.112314,257.591036 514.340911,257.346111 C514.570415,257.100279 514.864324,256.977817 515.224455,256.977817 L521.211505,256.977817 C521.570728,256.977817 521.873709,257.100279 522.118634,257.346111 C522.364466,257.591036 522.486928,257.894017 522.486928,258.254147 L522.486928,260.118297 C523.403128,259.104127 524.474448,258.327627 525.700888,257.787887 C526.928238,257.248145 528.293458,256.977817 529.798388,256.977817 L532.007248,256.977817 C532.366471,256.977817 532.661288,257.092119 532.889884,257.321623 C533.119388,257.550219 533.233686,257.845036 533.233686,258.204259 L533.233686,263.553599 C533.233686,263.881073 533.119388,264.166818 532.889884,264.41265 C532.661288,264.657575 532.366471,264.780037 532.007248,264.780037 L527.050698,264.780037 C525.741708,264.780037 524.735708,265.140167 524.032678,265.859517 C523.329653,266.579777 522.977688,267.593947 522.977688,268.902027 L522.977688,281.268927 C522.977688,281.62815 522.855226,281.922967 522.609394,282.151563 C522.364469,282.381067 522.061488,282.495385 521.702265,282.495385 L515.224455,282.495385 L515.224454,282.495385 Z M537.331154,253.444585 C536.971024,253.444585 536.677114,253.322123 536.44761,253.076291 C536.219014,252.831366 536.103808,252.528385 536.103808,252.169162 L536.103808,247.605392 C536.103808,247.245262 536.227178,246.942281 536.472102,246.697356 C536.717934,246.451524 537.00368,246.329062 537.331153,246.329062 L543.465163,246.329062 C543.825293,246.329062 544.127367,246.451524 544.373199,246.697356 C544.618124,246.942281 544.740586,247.245262 544.740586,247.605392 L544.740586,252.169162 C544.740586,252.528385 544.618124,252.831366 544.373199,253.076291 C544.127367,253.322123 543.825293,253.444585 543.465163,253.444585 L537.331153,253.444585 L537.331154,253.444585 Z M537.331154,282.495385 C537.00368,282.495385 536.717935,282.372923 536.472103,282.127091 C536.227178,281.882166 536.103809,281.595513 536.103809,281.268947 L536.103809,258.204247 C536.103809,257.845024 536.227179,257.550207 536.472103,257.321611 C536.717935,257.092107 537.003681,256.977809 537.331154,256.977809 L543.465164,256.977809 C543.825294,256.977809 544.127368,257.092107 544.3732,257.321611 C544.618125,257.550207 544.740587,257.845024 544.740587,258.204247 L544.740587,281.268947 C544.740587,281.62817 544.618125,281.922987 544.3732,282.151583 C544.127368,282.381087 543.825294,282.495385 543.465164,282.495385 L537.331154,282.495385 Z M557.524754,282.986142 C555.790324,282.986142 554.211924,282.650504 552.788634,281.980132 C551.365344,281.309764 550.253204,280.385402 549.452214,279.207942 C548.650312,278.029582 548.249364,276.737832 548.249364,275.330872 C548.249364,273.106592 549.173728,271.298682 551.022454,269.908052 C552.870274,268.518332 555.413864,267.561312 558.653224,267.037892 L564.738244,266.105363 L564.738244,265.516636 C564.738244,264.305616 564.492412,263.422986 564.001655,262.866916 C563.510898,262.310846 562.677245,262.032357 561.498885,262.032357 C560.844845,262.032357 560.296935,262.146655 559.855165,262.376159 C559.413393,262.604755 558.914472,262.948557 558.358405,263.406659 C557.932962,263.765882 557.55741,264.028042 557.229935,264.191325 C557.099308,264.420829 556.935118,264.535127 556.739178,264.535127 L551.046948,264.535127 C550.719474,264.535127 550.450057,264.428993 550.236882,264.215818 C550.024614,264.00355 549.934808,263.749554 549.967465,263.455644 C550.000122,262.5721 550.441893,261.582424 551.291875,260.486614 C552.142762,259.390804 553.435425,258.450114 555.168945,257.664534 C556.902465,256.879868 559.046015,256.487084 561.597765,256.487084 C565.653535,256.487084 568.663395,257.378792 570.626415,259.161304 C572.589445,260.944724 573.570955,263.357684 573.570955,266.400194 L573.570955,281.268894 C573.570955,281.59546 573.456657,281.882113 573.227153,282.127038 C572.998557,282.37287 572.70374,282.495332 572.344517,282.495332 L566.308477,282.495332 C565.981003,282.495332 565.695258,282.37287 565.449426,282.127038 C565.204501,281.882113 565.081132,281.59546 565.081132,281.268894 L565.081132,279.550794 C564.361779,280.564964 563.363932,281.391354 562.087602,282.029074 C560.812182,282.666786 559.290922,282.986142 557.524742,282.986142 L557.524754,282.986142 Z M559.977634,277.195942 C561.417244,277.195942 562.586534,276.721514 563.486404,275.772652 C564.386276,274.823795 564.836214,273.449492 564.836214,271.650662 L564.836214,271.061935 L560.763204,271.748632 C558.015514,272.272045 556.641214,273.253562 556.641214,274.693172 C556.641214,275.445182 556.959616,276.050232 557.598235,276.508332 C558.235947,276.966432 559.028775,277.195942 559.977635,277.195942 L559.977634,277.195942 Z M180.203634,70.258742 C212.778634,70.258742 229.066134,94.690642 229.066134,123.193542 C229.470713,136.194542 229.066134,143.592142 229.066134,159.841542 C224.218434,159.841542 216.850734,159.841542 216.850734,159.841542 C216.850734,159.841542 206.115734,183.058642 224.994934,196.488642 C224.994934,197.301429 155.372834,219.452642 139.483534,151.697342 C139.483534,152.509222 175.481134,174.483542 196.491134,167.984842 C196.491134,167.984842 204.679784,137.591442 198.593854,119.202142 C190.717254,95.403642 155.946954,102.076442 139.510754,111.631242 C98.650954,135.387142 85.699854,172.213842 70.260554,200.560742 C70.260554,200.560742 80.397754,70.258742 180.203554,70.258742 L180.203634,70.258742 Z" id="_38295856" fill="#0066A1" fill-rule="nonzero"></path>
            <path d="M278.696,137.74901 C274.05059,137.74901 270.41119,136.62053 267.7778,134.36269 C265.1444,132.10575 263.82725,128.71944 263.82725,124.20469 L263.82725,104.18349 C263.82725,103.824267 263.941548,103.521286 264.171052,103.276361 C264.399648,103.030529 264.694465,102.908067 265.053688,102.908067 L271.777328,102.908067 C272.136551,102.908067 272.439532,103.030529 272.684457,103.276361 C272.930289,103.521286 273.052751,103.824267 273.052751,104.18349 L273.052751,124.10679 C273.052751,126.13513 273.535344,127.65639 274.500531,128.67056 C275.465716,129.68473 276.847271,130.19182 278.647021,130.19182 C280.445861,130.19182 281.828321,129.676571 282.793511,128.64607 C283.758696,127.61557 284.241291,126.10248 284.241291,124.1068 L284.241291,104.1835 C284.241291,103.824277 284.363753,103.521296 284.609585,103.276371 C284.85451,103.030539 285.157491,102.908067 285.516714,102.908067 L292.190464,102.908067 C292.550594,102.908067 292.853575,103.030539 293.0985,103.276371 C293.344332,103.521296 293.466794,103.824277 293.466794,104.1835 L293.466794,124.2047 C293.466794,128.71948 292.157804,132.10579 289.540744,134.3627 C286.923674,136.62054 283.308764,137.74901 278.696044,137.74901 L278.696,137.74901 Z M300.5578,137.258246 C300.230326,137.258246 299.944581,137.135781 299.698749,136.889949 C299.453824,136.645024 299.331362,136.358371 299.331362,136.031805 L299.331362,104.134405 C299.331362,103.774275 299.453824,103.480365 299.698749,103.250861 C299.944581,103.022265 300.230327,102.907966 300.5578,102.907966 L307.42749,102.907966 C307.78762,102.907966 308.082437,103.022264 308.311034,103.250861 C308.540538,103.480365 308.654836,103.774274 308.654836,104.134405 L308.654836,129.554005 L323.376636,129.554005 C323.735859,129.554005 324.03884,129.676467 324.283765,129.922299 C324.529597,130.167224 324.652059,130.470205 324.652059,130.829428 L324.652059,136.031808 C324.652059,136.391031 324.529597,136.685848 324.283765,136.914444 C324.03884,137.143948 323.735859,137.258246 323.376636,137.258246 L300.557836,137.258246 L300.5578,137.258246 Z M329.4861,137.258243 C329.158626,137.258243 328.872881,137.135781 328.627049,136.889949 C328.382124,136.645024 328.259662,136.358371 328.259662,136.031805 L328.259662,104.183405 C328.259662,103.824182 328.37396,103.521201 328.602557,103.276276 C328.832061,103.030444 329.12597,102.907982 329.486101,102.907982 L343.373301,102.907982 C347.625921,102.907982 350.963251,103.873167 353.384401,105.802632 C355.804621,107.733002 357.015641,110.563242 357.015641,114.292452 C357.015641,118.021662 355.804621,120.811082 353.384401,122.658902 C350.963271,124.507632 347.625951,125.431992 343.373301,125.431992 L337.779041,125.431992 L337.779041,136.031792 C337.779041,136.358358 337.664743,136.645011 337.435239,136.889936 C337.206643,137.135768 336.911826,137.258243 336.552603,137.258243 L329.486073,137.258243 L329.4861,137.258243 Z M343.1284,118.414443 C344.46914,118.414443 345.52413,118.062477 346.29337,117.359453 C347.061708,116.656428 347.44633,115.617763 347.44633,114.243463 C347.44633,112.967133 347.094364,111.936633 346.39134,111.151963 C345.688315,110.366389 344.59976,109.974513 343.1284,109.974513 L337.63211,109.974513 L337.63211,118.414443 L343.1284,118.414443 L343.1284,118.414443 Z M375.4421,137.748943 C370.69782,137.748943 366.98494,136.595983 364.3026,134.289153 C361.62022,131.983233 360.19693,128.686723 360.03365,124.401443 C360.000086,123.485243 359.983758,121.996643 359.983758,119.935643 C359.983758,117.874643 360.000086,116.369723 360.03365,115.420863 C360.164277,111.298873 361.59573,108.101243 364.32709,105.827973 C367.05846,103.553803 370.76408,102.417173 375.44219,102.417173 C378.58267,102.417173 381.3222,102.924258 383.66168,103.938433 C386.00026,104.952603 387.78367,106.252523 389.01011,107.839083 C390.23746,109.426563 390.88333,111.053943 390.94864,112.722153 C390.94864,113.01697 390.842506,113.270059 390.629331,113.482327 C390.417063,113.695502 390.163067,113.801636 389.869157,113.801636 L382.262877,113.801636 C381.935403,113.801636 381.682315,113.744487 381.502703,113.630189 C381.322184,113.515891 381.150737,113.343536 380.987454,113.11494 C380.594667,112.19874 379.965124,111.41317 379.097904,110.75913 C378.230689,110.10509 377.012414,109.777617 375.442174,109.777617 C371.646744,109.777617 369.683724,111.740647 369.553094,115.666697 C369.520437,116.582897 369.504109,117.988947 369.504109,119.886657 C369.504109,121.784367 369.520437,123.207657 369.553094,124.155607 C369.683721,128.310257 371.679404,130.388487 375.540144,130.388487 C377.437854,130.388487 378.942784,129.914059 380.054924,128.965197 C381.167064,128.01634 381.723134,126.576727 381.723134,124.646357 L381.723134,123.763721 L377.355304,123.763721 C376.996081,123.763721 376.6931,123.640351 376.448175,123.395427 C376.202343,123.149595 376.079881,122.847521 376.079881,122.487391 L376.079881,118.660211 C376.079881,118.300081 376.202343,117.9971 376.448175,117.752175 C376.6931,117.506343 376.996081,117.383881 377.355304,117.383881 L389.820204,117.383881 C390.179427,117.383881 390.482408,117.506343 390.72824,117.752175 C390.973165,117.9971 391.095627,118.300081 391.095627,118.660211 L391.095627,124.352441 C391.095627,127.132791 390.449751,129.529421 389.157097,131.541441 C387.865347,133.553451 386.041107,135.091041 383.686207,136.154191 C381.330397,137.217351 378.582697,137.748943 375.442217,137.748943 L375.4421,137.748943 Z M410.2577,137.748943 C405.57964,137.748943 401.90758,136.620473 399.2415,134.362633 C396.57545,132.105693 395.16033,128.801023 394.99704,124.450433 C394.963476,123.566889 394.947148,122.127273 394.947148,120.131593 C394.947148,118.104163 394.963476,116.631893 394.99704,115.715693 C395.160323,111.463073 396.59177,108.182893 399.29048,105.876973 C401.98919,103.570143 405.64492,102.417183 410.25768,102.417183 C413.16956,102.417183 415.77847,102.891611 418.0853,103.840473 C420.39122,104.788423 422.21546,106.162723 423.55619,107.962463 C424.89783,109.761303 425.60086,111.887613 425.66708,114.341393 C425.66708,114.63621 425.560039,114.881135 425.347771,115.077982 C425.134596,115.273922 424.881507,115.371892 424.58669,115.371892 L417.61903,115.371892 C417.16093,115.371892 416.825292,115.282086 416.61302,115.102475 C416.399845,114.921956 416.212069,114.587226 416.048786,114.096465 C415.590686,112.493565 414.894916,111.372355 413.963296,110.734645 C413.030767,110.096933 411.795256,109.777624 410.257676,109.777624 C406.561126,109.777624 404.647086,111.838624 404.516456,115.960614 C404.483799,116.844158 404.467471,118.202134 404.467471,120.033624 C404.467471,121.866024 404.483799,123.256654 404.516456,124.204604 C404.647083,128.327504 406.561126,130.388504 410.257676,130.388504 C411.762606,130.388504 412.998116,130.06103 413.963296,129.406991 C414.928481,128.752044 415.623346,127.639901 416.048786,126.069661 C416.179413,125.578904 416.359024,125.243267 416.588528,125.063651 C416.817124,124.884039 417.160926,124.794234 417.619028,124.794234 L424.586688,124.794234 C424.881505,124.794234 425.134594,124.892204 425.347769,125.088144 C425.560037,125.284991 425.66708,125.529916 425.66708,125.824733 C425.600858,128.277613 424.897833,130.404823 423.556188,132.203663 C422.215448,134.003403 420.391218,135.376803 418.085298,136.325653 C415.778468,137.27451 413.169568,137.748943 410.257678,137.748943 L410.2577,137.748943 Z" id="_103782464" fill="#FFA100" fill-rule="nonzero"></path>
        </g>
    </g>
</svg>